<?xml version="1.0" standalone="no"?>
<!DOCTYPE svg PUBLIC "-//W3C//DTD SVG 20010904//EN"
 "http://www.w3.org/TR/2001/REC-SVG-20010904/DTD/svg10.dtd">
<svg version="1.0" xmlns="http://www.w3.org/2000/svg"
 width="666.000000pt" height="666.000000pt" viewBox="0 0 666.000000 666.000000"
 preserveAspectRatio="xMidYMid meet">
<metadata>
Created by potrace 1.14, written by Peter Selinger 2001-2017
</metadata>
<g transform="translate(0.000000,666.000000) scale(0.100000,-0.100000)"
fill="#000000" stroke="none">
<path d="M3315 4616 c-60 -19 -104 -44 -140 -80 -42 -42 -89 -122 -81 -141 3
-8 1 -17 -4 -20 -9 -6 -7 -134 3 -172 10 -38 39 -93 49 -93 5 0 6 -4 3 -10 -3
-5 -1 -10 5 -10 6 0 8 -4 5 -10 -3 -5 5 -21 19 -35 14 -14 23 -25 21 -25 -2 0
13 -25 35 -57 38 -53 40 -60 40 -130 l0 -73 49 0 c35 0 51 -4 55 -16 3 -8 10
-13 15 -9 5 3 13 0 17 -6 4 -8 3 -9 -4 -5 -17 10 -15 -2 8 -69 11 -32 20 -67
20 -77 0 -11 3 -17 8 -15 10 7 12 -284 1 -304 -5 -9 -10 -31 -11 -49 -1 -17
-6 -34 -11 -37 -4 -2 -2 -12 5 -21 8 -9 8 -13 2 -9 -7 4 -14 0 -18 -8 -3 -8
-17 -15 -31 -15 l-25 0 -2 253 -3 252 -177 3 -178 2 0 -255 0 -255 -265 0
-265 0 0 -180 0 -180 265 0 265 0 0 -36 c0 -25 3 -33 13 -28 8 5 7 2 -2 -10
-19 -23 -81 -50 -161 -71 -36 -9 -69 -21 -75 -26 -5 -5 -14 -9 -20 -9 -5 0 -3
5 5 11 11 8 8 9 -15 4 -16 -3 -45 -6 -63 -5 -25 1 -32 -3 -26 -12 6 -11 5 -11
-8 0 -8 7 -26 11 -39 8 -13 -2 -31 0 -39 4 -8 4 -37 10 -63 13 -36 5 -47 4
-42 -6 4 -6 0 -4 -8 6 -8 10 -29 19 -46 20 -17 1 -31 4 -31 7 0 7 -68 32 -74
28 -2 -2 -14 6 -27 17 -13 12 -19 14 -14 5 5 -10 2 -9 -11 3 -25 23 -134 98
-134 92 0 -12 55 -65 67 -65 7 0 13 -5 13 -12 0 -6 3 -9 6 -5 3 3 18 -6 33
-20 33 -32 168 -96 183 -87 6 4 8 3 5 -3 -4 -6 11 -15 38 -22 55 -14 58 -14
50 2 -4 6 0 4 8 -5 11 -14 16 -15 27 -5 9 9 11 9 6 0 -8 -15 1 -16 162 -16
119 -1 134 1 148 19 8 10 13 13 9 7 -8 -17 12 -16 69 3 40 14 45 18 34 32 -12
14 -11 14 10 1 20 -12 24 -12 32 1 5 8 10 12 10 7 0 -11 110 48 145 77 22 19
25 24 10 20 -16 -5 -17 -4 -5 4 8 6 18 8 23 5 12 -7 48 28 40 41 -3 6 -3 8 2
4 11 -10 37 11 29 23 -3 5 0 8 8 7 7 -2 12 3 10 10 -1 6 4 11 10 10 7 -2 12 3
10 10 -1 8 2 11 7 8 5 -3 18 9 30 27 11 17 26 41 33 52 7 11 16 22 19 25 12
10 67 127 83 178 17 49 17 55 2 71 -9 10 -16 21 -16 26 0 5 6 0 14 -11 14 -18
15 -18 23 11 4 17 8 85 8 153 0 93 -3 125 -14 131 -8 5 -9 10 -3 12 12 5 4 59
-9 59 -5 0 -9 -8 -10 -17 0 -12 -2 -13 -6 -5 -3 7 1 19 7 27 7 9 9 22 4 32 -4
10 -8 20 -8 23 -4 24 -60 140 -68 140 -5 0 -7 4 -4 9 3 5 -3 19 -13 33 -13 15
-17 33 -14 51 5 24 2 27 -21 27 -16 0 -26 5 -26 15 0 10 10 15 30 15 23 0 30
4 30 20 0 18 -7 20 -58 20 -54 0 -59 2 -75 30 -10 17 -22 30 -28 30 -5 0 -9 6
-9 14 0 8 -8 21 -17 28 -10 7 -19 20 -21 28 -2 8 -10 22 -18 31 -8 8 -14 21
-14 27 0 7 -4 21 -10 32 -23 45 -26 58 -29 116 -3 73 26 171 63 211 14 15 26
31 26 35 0 5 4 8 10 8 5 0 31 13 57 28 26 16 51 29 56 30 107 16 227 21 227
10 0 -6 9 -8 20 -5 11 3 23 1 26 -4 3 -5 9 -7 14 -4 5 3 21 -2 35 -11 14 -9
25 -13 25 -9 0 3 13 -3 29 -14 15 -11 31 -18 35 -14 3 3 6 0 6 -7 0 -7 3 -11
6 -7 4 3 13 -1 21 -9 8 -8 20 -11 26 -7 7 4 8 0 3 -13 -4 -10 -4 -15 -1 -12 4
4 27 -17 52 -45 25 -29 52 -58 61 -64 9 -7 12 -13 8 -13 -8 0 32 -61 49 -72 5
-4 7 -8 3 -8 -7 0 50 -130 61 -140 3 -3 6 -9 7 -15 2 -33 18 -96 25 -101 4 -2
6 -11 2 -19 -3 -8 -1 -15 3 -15 5 0 9 -11 9 -25 0 -23 -3 -25 -52 -25 l-53 0
0 -95 0 -95 55 0 c48 0 55 2 55 20 0 16 -7 20 -30 20 -23 0 -30 4 -30 20 0 16
7 20 30 20 23 0 30 4 30 20 0 16 -7 20 -30 20 -20 0 -30 5 -30 15 0 10 10 15
30 15 41 0 44 -18 36 -223 -8 -205 -8 -207 -19 -207 -5 0 -7 -11 -5 -25 3 -13
2 -23 -2 -20 -5 3 -44 -105 -45 -127 0 -4 -6 -13 -12 -20 -15 -14 -17 -28 -3
-28 13 0 42 58 35 70 -3 6 -2 10 3 10 23 0 62 161 67 275 2 33 6 68 10 78 4 9
5 32 1 50 -3 17 -8 73 -10 122 -3 50 -10 108 -16 130 -6 22 -13 54 -16 70 -3
17 -9 32 -12 35 -4 3 -8 12 -10 20 -7 37 -45 130 -54 130 -5 0 -6 5 -3 10 3 6
0 17 -7 25 -23 26 -33 40 -36 55 -2 8 -8 17 -13 18 -5 2 -9 10 -9 17 0 22
-111 135 -170 173 -98 63 -130 71 -290 77 -68 3 -119 -1 -145 -9z m25 -808 c0
-5 -4 -8 -10 -8 -5 0 -10 10 -10 23 0 18 2 19 10 7 5 -8 10 -18 10 -22z m121
-215 c13 -16 12 -17 -3 -4 -17 13 -22 21 -14 21 2 0 10 -8 17 -17z m24 -141
c-3 -3 -11 0 -18 7 -9 10 -8 11 6 5 10 -3 15 -9 12 -12z m-20 -291 c3 -5 2
-12 -3 -15 -5 -3 -9 1 -9 9 0 17 3 19 12 6z m-166 -297 c-7 -8 -6 -13 3 -16 8
-3 8 -6 -3 -10 -11 -4 -15 1 -15 16 0 13 6 23 13 23 9 0 10 -4 2 -13z m-301
-89 c-3 -3 -9 2 -12 12 -6 14 -5 15 5 6 7 -7 10 -15 7 -18z m-588 -171 c0 -2
-9 -4 -21 -4 -11 0 -18 4 -14 10 5 8 35 3 35 -6z m405 -14 c-3 -5 -1 -10 6
-10 7 0 10 -3 6 -6 -9 -9 -28 6 -22 17 4 5 8 9 11 9 3 0 2 -4 -1 -10z m-85 -4
c0 -2 -8 -10 -17 -17 -16 -13 -17 -12 -4 4 13 16 21 21 21 13z"/>
<path d="M1417 4263 c-4 -3 -7 -55 -7 -115 l0 -108 75 0 c73 0 75 1 75 25 0
23 -4 25 -45 25 l-45 0 0 90 c0 88 -1 90 -23 90 -13 0 -27 -3 -30 -7z"/>
<path d="M1580 4265 c0 -3 16 -37 35 -75 23 -45 35 -84 35 -110 0 -38 2 -40
30 -40 29 0 30 1 30 47 0 34 9 63 35 110 19 35 35 66 35 68 0 3 -13 5 -30 5
-25 0 -33 -7 -51 -42 l-22 -43 -20 43 c-17 34 -26 42 -49 42 -15 0 -28 -2 -28
-5z"/>
<path d="M1833 4235 c-34 -34 -35 -38 -31 -92 7 -77 38 -105 112 -101 46 3 51
5 54 29 3 24 1 25 -45 25 -47 -1 -48 0 -57 36 -7 29 -6 42 8 63 14 22 24 26
54 23 29 -2 37 1 40 16 5 24 -14 36 -61 36 -31 0 -46 -7 -74 -35z"/>
<path d="M2031 4168 c-19 -57 -36 -109 -38 -115 -4 -9 6 -13 31 -13 29 0 36 4
36 20 0 17 7 20 41 20 32 0 42 -4 46 -20 4 -15 14 -20 38 -20 l34 0 -38 113
-38 112 -39 3 -39 3 -34 -103z m93 -10 c6 -25 4 -28 -19 -28 -29 0 -29 0 -13
52 12 42 16 39 32 -24z"/>
<path d="M2267 4259 c-26 -16 -39 -55 -26 -82 5 -12 26 -31 46 -42 58 -32 56
-49 -6 -42 -49 6 -51 5 -51 -17 0 -28 16 -36 76 -36 104 0 115 113 13 145 -10
4 -19 13 -19 22 0 12 8 14 39 9 34 -5 39 -3 44 16 4 12 4 24 2 27 -11 10 -102
11 -118 0z"/>
<path d="M2430 4155 l0 -115 30 0 30 0 0 115 0 115 -30 0 -30 0 0 -115z"/>
<path d="M2585 4258 c-3 -7 -20 -59 -39 -115 l-33 -103 32 0 c24 0 34 5 38 20
4 16 14 20 46 20 34 0 41 -3 41 -20 0 -16 7 -20 36 -20 25 0 35 4 32 13 -3 6
-20 58 -38 115 l-33 102 -39 0 c-22 0 -41 -5 -43 -12z m60 -95 c6 -29 4 -33
-15 -33 -20 0 -22 4 -16 31 3 17 6 39 6 48 1 14 2 14 9 1 5 -8 12 -30 16 -47z"/>
<path d="M2770 4155 l0 -115 25 0 c24 0 25 2 25 78 l0 77 43 -77 c41 -76 43
-78 80 -78 l37 0 0 115 0 115 -25 0 c-23 0 -24 -3 -27 -77 l-3 -77 -39 77
c-39 76 -41 77 -78 77 l-38 0 0 -115z"/>
<path d="M1982 3858 c3 -88 4 -93 26 -96 20 -3 22 1 22 37 0 39 2 41 29 41 27
0 30 -3 33 -37 2 -31 7 -39 26 -41 21 -3 22 -1 22 92 0 96 0 96 -25 96 -22 0
-25 -4 -25 -35 0 -32 -2 -35 -30 -35 -28 0 -30 3 -30 35 0 31 -3 35 -25 35
l-26 0 3 -92z"/>
<path d="M2190 3854 l0 -95 52 3 c40 2 54 7 56 20 2 12 -5 17 -30 20 -45 4
-53 38 -9 38 24 0 31 4 31 20 0 16 -7 20 -30 20 -20 0 -30 5 -30 15 0 10 11
15 35 15 28 0 35 4 35 20 0 18 -7 20 -55 20 l-55 0 0 -96z"/>
<path d="M2370 3947 c0 -1 -13 -42 -30 -90 -16 -49 -30 -90 -30 -93 0 -14 51
-1 60 16 6 12 21 20 35 20 14 0 29 -8 35 -20 12 -23 50 -27 50 -6 0 8 -11 51
-25 95 -26 81 -26 81 -60 81 -19 0 -35 -1 -35 -3z m49 -94 c1 -7 -6 -13 -14
-13 -16 0 -18 12 -8 50 l7 25 7 -25 c4 -14 7 -31 8 -37z"/>
<path d="M2520 3855 l0 -95 60 0 c53 0 60 2 60 20 0 16 -7 20 -35 20 l-35 0 0
75 c0 73 -1 75 -25 75 -25 0 -25 0 -25 -95z"/>
<path d="M2660 3930 c0 -15 7 -20 25 -20 24 0 25 -2 25 -75 0 -68 2 -75 20
-75 18 0 20 7 20 75 0 73 1 75 25 75 18 0 25 5 25 20 0 18 -7 20 -70 20 -63 0
-70 -2 -70 -20z"/>
<path d="M2830 3855 c0 -95 0 -95 25 -95 23 0 25 4 25 40 0 38 2 40 30 40 28
0 30 -2 30 -41 0 -36 2 -40 23 -37 21 3 22 8 25 96 l3 92 -26 0 c-22 0 -25 -4
-25 -35 0 -32 -2 -35 -30 -35 -28 0 -30 3 -30 35 0 31 -3 35 -25 35 -25 0 -25
0 -25 -95z"/>
<path d="M3120 3932 c-33 -27 -40 -112 -11 -141 39 -39 121 -40 121 -2 0 15
-7 18 -37 17 -32 -1 -39 3 -47 26 -7 19 -6 35 3 54 10 23 16 26 45 21 28 -4
35 -2 39 13 9 34 -75 43 -113 12z"/>
<path d="M3410 3854 c0 -93 1 -95 23 -92 20 3 22 8 21 65 0 34 2 61 5 58 4 -2
20 -31 36 -64 27 -57 31 -61 62 -61 l33 0 0 95 0 95 -26 0 c-26 0 -26 -1 -22
-60 5 -68 0 -67 -37 8 -24 48 -29 52 -61 52 l-34 0 0 -96z"/>
<path d="M3617 3944 c-11 -11 5 -34 24 -34 16 0 19 -10 21 -72 3 -67 5 -73 26
-76 21 -3 22 0 22 72 0 74 1 76 25 76 18 0 25 5 25 20 0 18 -7 20 -68 20 -38
0 -71 -3 -75 -6z"/>
<path d="M3782 3858 c3 -91 3 -93 27 -93 20 0 25 5 26 28 3 41 10 42 33 2 16
-25 28 -35 47 -35 31 0 31 2 1 47 -22 31 -23 38 -10 50 8 8 14 28 14 44 0 35
-27 49 -96 49 l-45 0 3 -92z m86 35 c-5 -25 -28 -28 -28 -4 0 12 6 21 16 21 9
0 14 -7 12 -17z"/>
<path d="M3959 3250 c-1 -5 -2 -15 -3 -20 0 -6 -8 -15 -16 -20 -8 -5 -11 -10
-7 -10 4 0 -8 -13 -26 -30 -34 -29 -35 -29 -66 -14 -18 9 -41 14 -51 11 -11
-3 -21 0 -22 5 -2 6 -13 8 -26 4 -14 -5 -20 -12 -15 -19 4 -8 2 -8 -9 1 -32
25 -117 -31 -159 -105 -29 -50 -31 -61 -27 -117 6 -70 36 -127 89 -169 26 -20
36 -23 47 -15 10 9 12 8 10 -3 -2 -9 6 -14 24 -14 14 1 24 -3 22 -7 -8 -13 11
-9 25 5 11 10 12 9 6 -2 -7 -11 -2 -13 25 -8 18 4 37 7 42 7 5 0 6 4 3 10 -4
6 1 7 11 3 14 -5 16 -3 11 12 -6 15 -5 16 7 6 12 -10 21 -6 49 21 36 35 77
106 77 133 0 13 -4 14 -21 4 -15 -8 -20 -18 -16 -35 2 -13 1 -21 -3 -19 -11 7
-31 -45 -24 -58 4 -7 4 -9 0 -5 -4 3 -37 -7 -72 -24 -53 -25 -72 -29 -112 -24
-61 7 -121 49 -149 104 -12 24 -27 50 -35 59 -7 9 -8 14 -2 10 6 -3 11 0 11 8
0 8 -5 11 -11 8 -8 -5 -8 -3 0 8 6 8 16 33 22 56 7 22 27 56 44 75 18 18 31
36 30 40 -1 3 6 12 16 20 16 12 16 11 2 -6 -14 -18 -13 -19 3 -13 10 4 23 7
28 7 4 0 5 8 2 18 -6 15 -5 15 10 3 10 -8 34 -12 62 -9 25 2 45 1 45 -2 0 -3
16 -12 35 -19 39 -14 80 -61 90 -103 4 -16 10 -28 14 -28 4 0 6 -13 3 -30 -4
-31 14 -43 24 -15 9 22 -4 82 -21 98 -8 8 -11 18 -7 22 4 5 -1 5 -10 2 -12 -4
-15 -2 -11 9 3 8 0 21 -7 30 -11 12 -15 12 -23 2 -6 -9 -7 -8 -3 5 3 10 6 25
6 33 0 9 4 13 9 10 11 -7 82 84 75 95 -7 12 -24 11 -25 -1z"/>
</g>
</svg>
